<svg xmlns="http://www.w3.org/2000/svg" xmlns:xlink="http://www.w3.org/1999/xlink" zoomAndPan="magnify" preserveAspectRatio="xMidYMid meet" version="1.0" viewBox="25.56 18.74 323.8 337.71"><defs><clipPath id="ba7e18bc68"><path d="M 25.5625 18.738281 L 349.367188 18.738281 L 349.367188 356.453125 L 25.5625 356.453125 Z M 25.5625 18.738281 " clip-rule="nonzero"/></clipPath><clipPath id="15cb6d30b6"><path d="M 339.621094 131.300781 C 345.503906 148.546875 349.367188 168.273438 349.367188 187.578125 C 349.367188 206.886719 346.058594 225.464844 340.171875 242.585938 C 339.988281 242.949219 339.988281 243.3125 339.804688 243.675781 C 316.269531 307.972656 254.117188 355.328125 183.519531 356.238281 L 25.5625 356.238281 L 25.5625 18.738281 L 183.402344 18.738281 C 254.484375 19.648438 316.636719 66.277344 339.621094 131.300781 Z M 339.621094 131.300781 " clip-rule="nonzero"/></clipPath><clipPath id="9a9714be0f"><path d="M 80.703125 103.15625 L 255 103.15625 L 255 272 L 80.703125 272 Z M 80.703125 103.15625 " clip-rule="nonzero"/></clipPath></defs><g clip-path="url(#ba7e18bc68)"><g clip-path="url(#15cb6d30b6)"><path fill="#000000" d="M 349.367188 18.738281 L 349.367188 356.453125 L 25.5625 356.453125 L 25.5625 18.738281 Z M 349.367188 18.738281 " fill-opacity="1" fill-rule="nonzero"/></g></g><g clip-path="url(#9a9714be0f)"><path fill="#008d81" d="M 254.609375 197.929688 L 192.484375 197.929688 L 234.480469 239.925781 L 220.609375 253.796875 L 177.8125 211 L 177.8125 271.769531 L 158.203125 271.769531 L 158.203125 211.730469 L 113.632812 256.300781 L 98.859375 241.523438 L 142.457031 197.929688 L 80.78125 197.929688 L 80.78125 177 L 143.847656 177 L 101.398438 134.550781 L 115.269531 120.679688 L 158.203125 163.648438 L 158.203125 103.15625 L 177.8125 103.15625 L 177.8125 162.535156 L 221.757812 118.59375 L 236.53125 133.402344 L 192.933594 177 L 254.609375 177 Z M 254.609375 197.929688 " fill-opacity="1" fill-rule="nonzero"/></g></svg>